<svg viewBox="0 0 624 272" xmlns="http://www.w3.org/2000/svg"><path d="M0,16 L624,16" stroke="black" fill="none" /><path d="M0,32 L624,32" stroke="black" fill="none" /><path d="M0,48 L624,48" stroke="black" fill="none" /><path d="M0,64 L624,64" stroke="black" fill="none" /><path d="M0,80 L624,80" stroke="black" fill="none" /><path d="M0,96 L624,96" stroke="black" fill="none" /><path d="M0,112 L624,112" stroke="black" fill="none" /><path d="M0,128 L624,128" stroke="black" fill="none" /><path d="M0,144 L624,144" stroke="black" fill="none" /><path d="M0,160 L624,160" stroke="black" fill="none" /><path d="M0,176 L624,176" stroke="black" fill="none" /><path d="M0,192 L624,192" stroke="black" fill="none" /><path d="M0,208 L624,208" stroke="black" fill="none" /><path d="M0,224 L624,224" stroke="black" fill="none" /><path d="M0,240 L624,240" stroke="black" fill="none" /><path d="M0,256 L624,256" stroke="black" fill="none" /><rect x="20" y="12" width="24" height="8" stroke="black" fill="lightgray" /><text x="32" y="16" text-anchor="middle" dominant-baseline="middle" font-size="6" font-family="monospace" fill="black" >r0[0]</text><rect x="20" y="28" width="24" height="8" stroke="black" fill="lightgray" /><text x="32" y="32" text-anchor="middle" dominant-baseline="middle" font-size="6" font-family="monospace" fill="black" >r0[1]</text><rect x="20" y="44" width="24" height="8" stroke="black" fill="lightgray" /><text x="32" y="48" text-anchor="middle" dominant-baseline="middle" font-size="6" font-family="monospace" fill="black" >r0[2]</text><rect x="20" y="60" width="24" height="8" stroke="black" fill="lightgray" /><text x="32" y="64" text-anchor="middle" dominant-baseline="middle" font-size="6" font-family="monospace" fill="black" >r0[3]</text><rect x="20" y="76" width="24" height="8" stroke="black" fill="lightgray" /><text x="32" y="80" text-anchor="middle" dominant-baseline="middle" font-size="6" font-family="monospace" fill="black" >r0[4]</text><rect x="20" y="92" width="24" height="8" stroke="black" fill="lightgray" /><text x="32" y="96" text-anchor="middle" dominant-baseline="middle" font-size="6" font-family="monospace" fill="black" >r0[5]</text><rect x="20" y="108" width="24" height="8" stroke="black" fill="lightgray" /><text x="32" y="112" text-anchor="middle" dominant-baseline="middle" font-size="6" font-family="monospace" fill="black" >r0[6]</text><rect x="20" y="124" width="24" height="8" stroke="black" fill="lightgray" /><text x="32" y="128" text-anchor="middle" dominant-baseline="middle" font-size="6" font-family="monospace" fill="black" >r0[7]</text><rect x="20" y="140" width="24" height="8" stroke="black" fill="lightgray" /><text x="32" y="144" text-anchor="middle" dominant-baseline="middle" font-size="6" font-family="monospace" fill="black" >r1[0]</text><rect x="20" y="156" width="24" height="8" stroke="black" fill="lightgray" /><text x="32" y="160" text-anchor="middle" dominant-baseline="middle" font-size="6" font-family="monospace" fill="black" >r1[1]</text><rect x="20" y="172" width="24" height="8" stroke="black" fill="lightgray" /><text x="32" y="176" text-anchor="middle" dominant-baseline="middle" font-size="6" font-family="monospace" fill="black" >r1[2]</text><rect x="20" y="188" width="24" height="8" stroke="black" fill="lightgray" /><text x="32" y="192" text-anchor="middle" dominant-baseline="middle" font-size="6" font-family="monospace" fill="black" >r1[3]</text><rect x="20" y="204" width="24" height="8" stroke="black" fill="lightgray" /><text x="32" y="208" text-anchor="middle" dominant-baseline="middle" font-size="6" font-family="monospace" fill="black" >r1[4]</text><rect x="20" y="220" width="24" height="8" stroke="black" fill="lightgray" /><text x="32" y="224" text-anchor="middle" dominant-baseline="middle" font-size="6" font-family="monospace" fill="black" >r1[5]</text><rect x="20" y="236" width="24" height="8" stroke="black" fill="lightgray" /><text x="32" y="240" text-anchor="middle" dominant-baseline="middle" font-size="6" font-family="monospace" fill="black" >r1[6]</text><rect x="20" y="252" width="24" height="8" stroke="black" fill="lightgray" /><text x="32" y="256" text-anchor="middle" dominant-baseline="middle" font-size="6" font-family="monospace" fill="black" >r1[7]</text><path d="M48,32 L48,256" stroke="black" fill="none" /><circle cx="48" cy="256" r="4" stroke="black" fill="black" /><circle cx="48" cy="128" r="4" stroke="black" fill="white" /><path d="M48,124 l0,8 m-4,-4 l8,0" stroke="black" fill="none" /><circle cx="48" cy="32" r="4" stroke="black" fill="white" /><path d="M48,28 l0,8 m-4,-4 l8,0" stroke="black" fill="none" /><circle cx="48" cy="48" r="4" stroke="black" fill="white" /><path d="M48,44 l0,8 m-4,-4 l8,0" stroke="black" fill="none" /><circle cx="48" cy="64" r="4" stroke="black" fill="white" /><path d="M48,60 l0,8 m-4,-4 l8,0" stroke="black" fill="none" /><circle cx="48" cy="80" r="4" stroke="black" fill="white" /><path d="M48,76 l0,8 m-4,-4 l8,0" stroke="black" fill="none" /><circle cx="48" cy="96" r="4" stroke="black" fill="white" /><path d="M48,92 l0,8 m-4,-4 l8,0" stroke="black" fill="none" /><circle cx="48" cy="112" r="4" stroke="black" fill="white" /><path d="M48,108 l0,8 m-4,-4 l8,0" stroke="black" fill="none" /><path d="M64,128 L64,256" stroke="black" fill="none" /><circle cx="64" cy="256" r="4" stroke="black" fill="black" /><circle cx="64" cy="128" r="4" stroke="black" fill="white" /><path d="M64,124 l0,8 m-4,-4 l8,0" stroke="black" fill="none" /><circle cx="64" cy="160" r="4" stroke="black" fill="white" /><path d="M64,156 l0,8 m-4,-4 l8,0" stroke="black" fill="none" /><circle cx="64" cy="176" r="4" stroke="black" fill="white" /><path d="M64,172 l0,8 m-4,-4 l8,0" stroke="black" fill="none" /><circle cx="64" cy="192" r="4" stroke="black" fill="white" /><path d="M64,188 l0,8 m-4,-4 l8,0" stroke="black" fill="none" /><circle cx="64" cy="208" r="4" stroke="black" fill="white" /><path d="M64,204 l0,8 m-4,-4 l8,0" stroke="black" fill="none" /><circle cx="64" cy="224" r="4" stroke="black" fill="white" /><path d="M64,220 l0,8 m-4,-4 l8,0" stroke="black" fill="none" /><circle cx="64" cy="240" r="4" stroke="black" fill="white" /><path d="M64,236 l0,8 m-4,-4 l8,0" stroke="black" fill="none" /><path d="M80,16 L80,256" stroke="black" fill="none" /><circle cx="80" cy="144" r="4" stroke="black" fill="black" /><circle cx="80" cy="16" r="4" stroke="black" fill="black" /><circle cx="80" cy="256" r="4" stroke="black" fill="white" /><path d="M80,252 l0,8 m-4,-4 l8,0" stroke="black" fill="none" /><path d="M96,32 L96,256" stroke="black" fill="none" /><circle cx="96" cy="256" r="4" stroke="black" fill="black" /><circle cx="96" cy="160" r="4" stroke="black" fill="white" /><path d="M96,156 l0,8 m-4,-4 l8,0" stroke="black" fill="none" /><circle cx="96" cy="32" r="4" stroke="black" fill="white" /><path d="M96,28 l0,8 m-4,-4 l8,0" stroke="black" fill="none" /><path d="M112,32 L112,256" stroke="black" fill="none" /><circle cx="112" cy="160" r="4" stroke="black" fill="black" /><circle cx="112" cy="32" r="4" stroke="black" fill="black" /><circle cx="112" cy="256" r="4" stroke="black" fill="white" /><path d="M112,252 l0,8 m-4,-4 l8,0" stroke="black" fill="none" /><path d="M128,48 L128,256" stroke="black" fill="none" /><circle cx="128" cy="256" r="4" stroke="black" fill="black" /><circle cx="128" cy="176" r="4" stroke="black" fill="white" /><path d="M128,172 l0,8 m-4,-4 l8,0" stroke="black" fill="none" /><circle cx="128" cy="48" r="4" stroke="black" fill="white" /><path d="M128,44 l0,8 m-4,-4 l8,0" stroke="black" fill="none" /><path d="M144,48 L144,256" stroke="black" fill="none" /><circle cx="144" cy="176" r="4" stroke="black" fill="black" /><circle cx="144" cy="48" r="4" stroke="black" fill="black" /><circle cx="144" cy="256" r="4" stroke="black" fill="white" /><path d="M144,252 l0,8 m-4,-4 l8,0" stroke="black" fill="none" /><path d="M160,64 L160,256" stroke="black" fill="none" /><circle cx="160" cy="256" r="4" stroke="black" fill="black" /><circle cx="160" cy="192" r="4" stroke="black" fill="white" /><path d="M160,188 l0,8 m-4,-4 l8,0" stroke="black" fill="none" /><circle cx="160" cy="64" r="4" stroke="black" fill="white" /><path d="M160,60 l0,8 m-4,-4 l8,0" stroke="black" fill="none" /><path d="M176,64 L176,256" stroke="black" fill="none" /><circle cx="176" cy="192" r="4" stroke="black" fill="black" /><circle cx="176" cy="64" r="4" stroke="black" fill="black" /><circle cx="176" cy="256" r="4" stroke="black" fill="white" /><path d="M176,252 l0,8 m-4,-4 l8,0" stroke="black" fill="none" /><path d="M192,80 L192,256" stroke="black" fill="none" /><circle cx="192" cy="256" r="4" stroke="black" fill="black" /><circle cx="192" cy="208" r="4" stroke="black" fill="white" /><path d="M192,204 l0,8 m-4,-4 l8,0" stroke="black" fill="none" /><circle cx="192" cy="80" r="4" stroke="black" fill="white" /><path d="M192,76 l0,8 m-4,-4 l8,0" stroke="black" fill="none" /><path d="M208,80 L208,256" stroke="black" fill="none" /><circle cx="208" cy="208" r="4" stroke="black" fill="black" /><circle cx="208" cy="80" r="4" stroke="black" fill="black" /><circle cx="208" cy="256" r="4" stroke="black" fill="white" /><path d="M208,252 l0,8 m-4,-4 l8,0" stroke="black" fill="none" /><path d="M224,96 L224,256" stroke="black" fill="none" /><circle cx="224" cy="256" r="4" stroke="black" fill="black" /><circle cx="224" cy="224" r="4" stroke="black" fill="white" /><path d="M224,220 l0,8 m-4,-4 l8,0" stroke="black" fill="none" /><circle cx="224" cy="96" r="4" stroke="black" fill="white" /><path d="M224,92 l0,8 m-4,-4 l8,0" stroke="black" fill="none" /><path d="M240,96 L240,256" stroke="black" fill="none" /><circle cx="240" cy="224" r="4" stroke="black" fill="black" /><circle cx="240" cy="96" r="4" stroke="black" fill="black" /><circle cx="240" cy="256" r="4" stroke="black" fill="white" /><path d="M240,252 l0,8 m-4,-4 l8,0" stroke="black" fill="none" /><path d="M256,112 L256,256" stroke="black" fill="none" /><circle cx="256" cy="256" r="4" stroke="black" fill="black" /><circle cx="256" cy="240" r="4" stroke="black" fill="white" /><path d="M256,236 l0,8 m-4,-4 l8,0" stroke="black" fill="none" /><circle cx="256" cy="112" r="4" stroke="black" fill="white" /><path d="M256,108 l0,8 m-4,-4 l8,0" stroke="black" fill="none" /><circle cx="256" cy="128" r="4" stroke="black" fill="white" /><path d="M256,124 l0,8 m-4,-4 l8,0" stroke="black" fill="none" /><path d="M272,112 L272,240" stroke="black" fill="none" /><circle cx="272" cy="240" r="4" stroke="black" fill="black" /><circle cx="272" cy="112" r="4" stroke="black" fill="black" /><circle cx="272" cy="128" r="4" stroke="black" fill="white" /><path d="M272,124 l0,8 m-4,-4 l8,0" stroke="black" fill="none" /><path d="M288,240 L288,256" stroke="black" fill="none" /><circle cx="288" cy="256" r="4" stroke="black" fill="black" /><circle cx="288" cy="240" r="4" stroke="black" fill="white" /><path d="M288,236 l0,8 m-4,-4 l8,0" stroke="black" fill="none" /><path d="M304,112 L304,240" stroke="black" fill="none" /><circle cx="304" cy="240" r="4" stroke="black" fill="black" /><circle cx="304" cy="112" r="4" stroke="black" fill="white" /><path d="M304,108 l0,8 m-4,-4 l8,0" stroke="black" fill="none" /><path d="M320,96 L320,256" stroke="black" fill="none" /><circle cx="320" cy="224" r="4" stroke="black" fill="black" /><circle cx="320" cy="96" r="4" stroke="black" fill="black" /><circle cx="320" cy="256" r="4" stroke="black" fill="white" /><path d="M320,252 l0,8 m-4,-4 l8,0" stroke="black" fill="none" /><path d="M336,224 L336,256" stroke="black" fill="none" /><circle cx="336" cy="256" r="4" stroke="black" fill="black" /><circle cx="336" cy="224" r="4" stroke="black" fill="white" /><path d="M336,220 l0,8 m-4,-4 l8,0" stroke="black" fill="none" /><path d="M352,96 L352,224" stroke="black" fill="none" /><circle cx="352" cy="224" r="4" stroke="black" fill="black" /><circle cx="352" cy="96" r="4" stroke="black" fill="white" /><path d="M352,92 l0,8 m-4,-4 l8,0" stroke="black" fill="none" /><path d="M368,80 L368,256" stroke="black" fill="none" /><circle cx="368" cy="208" r="4" stroke="black" fill="black" /><circle cx="368" cy="80" r="4" stroke="black" fill="black" /><circle cx="368" cy="256" r="4" stroke="black" fill="white" /><path d="M368,252 l0,8 m-4,-4 l8,0" stroke="black" fill="none" /><path d="M384,208 L384,256" stroke="black" fill="none" /><circle cx="384" cy="256" r="4" stroke="black" fill="black" /><circle cx="384" cy="208" r="4" stroke="black" fill="white" /><path d="M384,204 l0,8 m-4,-4 l8,0" stroke="black" fill="none" /><path d="M400,80 L400,208" stroke="black" fill="none" /><circle cx="400" cy="208" r="4" stroke="black" fill="black" /><circle cx="400" cy="80" r="4" stroke="black" fill="white" /><path d="M400,76 l0,8 m-4,-4 l8,0" stroke="black" fill="none" /><path d="M416,64 L416,256" stroke="black" fill="none" /><circle cx="416" cy="192" r="4" stroke="black" fill="black" /><circle cx="416" cy="64" r="4" stroke="black" fill="black" /><circle cx="416" cy="256" r="4" stroke="black" fill="white" /><path d="M416,252 l0,8 m-4,-4 l8,0" stroke="black" fill="none" /><path d="M432,192 L432,256" stroke="black" fill="none" /><circle cx="432" cy="256" r="4" stroke="black" fill="black" /><circle cx="432" cy="192" r="4" stroke="black" fill="white" /><path d="M432,188 l0,8 m-4,-4 l8,0" stroke="black" fill="none" /><path d="M448,64 L448,192" stroke="black" fill="none" /><circle cx="448" cy="192" r="4" stroke="black" fill="black" /><circle cx="448" cy="64" r="4" stroke="black" fill="white" /><path d="M448,60 l0,8 m-4,-4 l8,0" stroke="black" fill="none" /><path d="M464,48 L464,256" stroke="black" fill="none" /><circle cx="464" cy="176" r="4" stroke="black" fill="black" /><circle cx="464" cy="48" r="4" stroke="black" fill="black" /><circle cx="464" cy="256" r="4" stroke="black" fill="white" /><path d="M464,252 l0,8 m-4,-4 l8,0" stroke="black" fill="none" /><path d="M480,176 L480,256" stroke="black" fill="none" /><circle cx="480" cy="256" r="4" stroke="black" fill="black" /><circle cx="480" cy="176" r="4" stroke="black" fill="white" /><path d="M480,172 l0,8 m-4,-4 l8,0" stroke="black" fill="none" /><path d="M496,48 L496,176" stroke="black" fill="none" /><circle cx="496" cy="176" r="4" stroke="black" fill="black" /><circle cx="496" cy="48" r="4" stroke="black" fill="white" /><path d="M496,44 l0,8 m-4,-4 l8,0" stroke="black" fill="none" /><path d="M512,32 L512,256" stroke="black" fill="none" /><circle cx="512" cy="160" r="4" stroke="black" fill="black" /><circle cx="512" cy="32" r="4" stroke="black" fill="black" /><circle cx="512" cy="256" r="4" stroke="black" fill="white" /><path d="M512,252 l0,8 m-4,-4 l8,0" stroke="black" fill="none" /><path d="M528,160 L528,256" stroke="black" fill="none" /><circle cx="528" cy="256" r="4" stroke="black" fill="black" /><circle cx="528" cy="160" r="4" stroke="black" fill="white" /><path d="M528,156 l0,8 m-4,-4 l8,0" stroke="black" fill="none" /><path d="M544,32 L544,160" stroke="black" fill="none" /><circle cx="544" cy="160" r="4" stroke="black" fill="black" /><circle cx="544" cy="32" r="4" stroke="black" fill="white" /><path d="M544,28 l0,8 m-4,-4 l8,0" stroke="black" fill="none" /><path d="M560,16 L560,256" stroke="black" fill="none" /><circle cx="560" cy="144" r="4" stroke="black" fill="black" /><circle cx="560" cy="16" r="4" stroke="black" fill="black" /><circle cx="560" cy="256" r="4" stroke="black" fill="white" /><path d="M560,252 l0,8 m-4,-4 l8,0" stroke="black" fill="none" /><path d="M576,16 L576,144" stroke="black" fill="none" /><circle cx="576" cy="144" r="4" stroke="black" fill="black" /><circle cx="576" cy="16" r="4" stroke="black" fill="white" /><path d="M576,12 l0,8 m-4,-4 l8,0" stroke="black" fill="none" /><path d="M592,32 L592,256" stroke="black" fill="none" /><circle cx="592" cy="256" r="4" stroke="black" fill="black" /><circle cx="592" cy="160" r="4" stroke="black" fill="white" /><path d="M592,156 l0,8 m-4,-4 l8,0" stroke="black" fill="none" /><circle cx="592" cy="176" r="4" stroke="black" fill="white" /><path d="M592,172 l0,8 m-4,-4 l8,0" stroke="black" fill="none" /><circle cx="592" cy="192" r="4" stroke="black" fill="white" /><path d="M592,188 l0,8 m-4,-4 l8,0" stroke="black" fill="none" /><circle cx="592" cy="208" r="4" stroke="black" fill="white" /><path d="M592,204 l0,8 m-4,-4 l8,0" stroke="black" fill="none" /><circle cx="592" cy="224" r="4" stroke="black" fill="white" /><path d="M592,220 l0,8 m-4,-4 l8,0" stroke="black" fill="none" /><circle cx="592" cy="240" r="4" stroke="black" fill="white" /><path d="M592,236 l0,8 m-4,-4 l8,0" stroke="black" fill="none" /><circle cx="592" cy="32" r="4" stroke="black" fill="white" /><path d="M592,28 l0,8 m-4,-4 l8,0" stroke="black" fill="none" /><circle cx="592" cy="48" r="4" stroke="black" fill="white" /><path d="M592,44 l0,8 m-4,-4 l8,0" stroke="black" fill="none" /><circle cx="592" cy="64" r="4" stroke="black" fill="white" /><path d="M592,60 l0,8 m-4,-4 l8,0" stroke="black" fill="none" /><circle cx="592" cy="80" r="4" stroke="black" fill="white" /><path d="M592,76 l0,8 m-4,-4 l8,0" stroke="black" fill="none" /><circle cx="592" cy="96" r="4" stroke="black" fill="white" /><path d="M592,92 l0,8 m-4,-4 l8,0" stroke="black" fill="none" /><circle cx="592" cy="112" r="4" stroke="black" fill="white" /><path d="M592,108 l0,8 m-4,-4 l8,0" stroke="black" fill="none" /><circle cx="592" cy="128" r="4" stroke="black" fill="white" /><path d="M592,124 l0,8 m-4,-4 l8,0" stroke="black" fill="none" /><path d="M608,128 L608,256" stroke="black" fill="none" /><circle cx="608" cy="256" r="4" stroke="black" fill="black" /><circle cx="608" cy="128" r="4" stroke="black" fill="white" /><path d="M608,124 l0,8 m-4,-4 l8,0" stroke="black" fill="none" /></svg>
