<svg viewBox="0 0 832 368" xmlns="http://www.w3.org/2000/svg"><path d="M0,16 L832,16" stroke="black" fill="none" /><path d="M0,32 L832,32" stroke="black" fill="none" /><path d="M0,48 L832,48" stroke="black" fill="none" /><path d="M0,64 L832,64" stroke="black" fill="none" /><path d="M0,80 L832,80" stroke="black" fill="none" /><path d="M0,96 L832,96" stroke="black" fill="none" /><path d="M0,112 L832,112" stroke="black" fill="none" /><path d="M0,128 L832,128" stroke="black" fill="none" /><path d="M0,144 L832,144" stroke="black" fill="none" /><path d="M0,160 L832,160" stroke="black" fill="none" /><path d="M0,176 L832,176" stroke="black" fill="none" /><path d="M0,192 L832,192" stroke="black" fill="none" /><path d="M0,208 L832,208" stroke="black" fill="none" /><path d="M0,224 L832,224" stroke="black" fill="none" /><path d="M0,240 L832,240" stroke="black" fill="none" /><path d="M0,256 L832,256" stroke="black" fill="none" /><path d="M48,272 L768,272" stroke="black" fill="none" /><path d="M80,288 L704,288" stroke="black" fill="none" /><path d="M128,304 L624,304" stroke="black" fill="none" /><path d="M176,320 L544,320" stroke="black" fill="none" /><path d="M224,336 L464,336" stroke="black" fill="none" /><path d="M272,352 L384,352" stroke="black" fill="none" /><rect x="20" y="12" width="24" height="8" stroke="black" fill="lightgray" /><text x="32" y="16" text-anchor="middle" dominant-baseline="middle" font-size="6" font-family="monospace" fill="black" >r0[0]</text><rect x="20" y="28" width="24" height="8" stroke="black" fill="lightgray" /><text x="32" y="32" text-anchor="middle" dominant-baseline="middle" font-size="6" font-family="monospace" fill="black" >r0[1]</text><rect x="20" y="44" width="24" height="8" stroke="black" fill="lightgray" /><text x="32" y="48" text-anchor="middle" dominant-baseline="middle" font-size="6" font-family="monospace" fill="black" >r0[2]</text><rect x="20" y="60" width="24" height="8" stroke="black" fill="lightgray" /><text x="32" y="64" text-anchor="middle" dominant-baseline="middle" font-size="6" font-family="monospace" fill="black" >r0[3]</text><rect x="20" y="76" width="24" height="8" stroke="black" fill="lightgray" /><text x="32" y="80" text-anchor="middle" dominant-baseline="middle" font-size="6" font-family="monospace" fill="black" >r0[4]</text><rect x="20" y="92" width="24" height="8" stroke="black" fill="lightgray" /><text x="32" y="96" text-anchor="middle" dominant-baseline="middle" font-size="6" font-family="monospace" fill="black" >r0[5]</text><rect x="20" y="108" width="24" height="8" stroke="black" fill="lightgray" /><text x="32" y="112" text-anchor="middle" dominant-baseline="middle" font-size="6" font-family="monospace" fill="black" >r0[6]</text><rect x="20" y="124" width="24" height="8" stroke="black" fill="lightgray" /><text x="32" y="128" text-anchor="middle" dominant-baseline="middle" font-size="6" font-family="monospace" fill="black" >r0[7]</text><rect x="20" y="140" width="24" height="8" stroke="black" fill="lightgray" /><text x="32" y="144" text-anchor="middle" dominant-baseline="middle" font-size="6" font-family="monospace" fill="black" >r1[0]</text><rect x="20" y="156" width="24" height="8" stroke="black" fill="lightgray" /><text x="32" y="160" text-anchor="middle" dominant-baseline="middle" font-size="6" font-family="monospace" fill="black" >r1[1]</text><rect x="20" y="172" width="24" height="8" stroke="black" fill="lightgray" /><text x="32" y="176" text-anchor="middle" dominant-baseline="middle" font-size="6" font-family="monospace" fill="black" >r1[2]</text><rect x="20" y="188" width="24" height="8" stroke="black" fill="lightgray" /><text x="32" y="192" text-anchor="middle" dominant-baseline="middle" font-size="6" font-family="monospace" fill="black" >r1[3]</text><rect x="20" y="204" width="24" height="8" stroke="black" fill="lightgray" /><text x="32" y="208" text-anchor="middle" dominant-baseline="middle" font-size="6" font-family="monospace" fill="black" >r1[4]</text><rect x="20" y="220" width="24" height="8" stroke="black" fill="lightgray" /><text x="32" y="224" text-anchor="middle" dominant-baseline="middle" font-size="6" font-family="monospace" fill="black" >r1[5]</text><rect x="20" y="236" width="24" height="8" stroke="black" fill="lightgray" /><text x="32" y="240" text-anchor="middle" dominant-baseline="middle" font-size="6" font-family="monospace" fill="black" >r1[6]</text><rect x="20" y="252" width="24" height="8" stroke="black" fill="lightgray" /><text x="32" y="256" text-anchor="middle" dominant-baseline="middle" font-size="6" font-family="monospace" fill="black" >r1[7]</text><path d="M48,128 L48,256" stroke="black" fill="none" /><circle cx="48" cy="256" r="4" stroke="black" fill="black" /><circle cx="48" cy="128" r="4" stroke="black" fill="white" /><path d="M48,124 l0,8 m-4,-4 l8,0" stroke="black" fill="none" /><text x="48" y="272" text-anchor="end" dominant-baseline="middle" font-size="6" font-family="monospace" fill="black" >|0⟩</text><path d="M64,16 L64,272" stroke="black" fill="none" /><circle cx="64" cy="144" r="4" stroke="black" fill="black" /><circle cx="64" cy="16" r="4" stroke="black" fill="black" /><circle cx="64" cy="272" r="4" stroke="black" fill="white" /><path d="M64,268 l0,8 m-4,-4 l8,0" stroke="black" fill="none" /><path d="M80,32 L80,272" stroke="black" fill="none" /><circle cx="80" cy="272" r="4" stroke="black" fill="black" /><circle cx="80" cy="160" r="4" stroke="black" fill="white" /><path d="M80,156 l0,8 m-4,-4 l8,0" stroke="black" fill="none" /><circle cx="80" cy="32" r="4" stroke="black" fill="white" /><path d="M80,28 l0,8 m-4,-4 l8,0" stroke="black" fill="none" /><text x="80" y="288" text-anchor="end" dominant-baseline="middle" font-size="6" font-family="monospace" fill="black" >|0⟩</text><path d="M96,32 L96,288" stroke="black" fill="none" /><circle cx="96" cy="160" r="4" stroke="black" fill="black" /><circle cx="96" cy="32" r="4" stroke="black" fill="black" /><circle cx="96" cy="288" r="4" stroke="black" fill="white" /><path d="M96,284 l0,8 m-4,-4 l8,0" stroke="black" fill="none" /><path d="M112,272 L112,288" stroke="black" fill="none" /><circle cx="112" cy="288" r="4" stroke="black" fill="black" /><circle cx="112" cy="272" r="4" stroke="black" fill="white" /><path d="M112,268 l0,8 m-4,-4 l8,0" stroke="black" fill="none" /><path d="M128,48 L128,272" stroke="black" fill="none" /><circle cx="128" cy="272" r="4" stroke="black" fill="black" /><circle cx="128" cy="176" r="4" stroke="black" fill="white" /><path d="M128,172 l0,8 m-4,-4 l8,0" stroke="black" fill="none" /><circle cx="128" cy="48" r="4" stroke="black" fill="white" /><path d="M128,44 l0,8 m-4,-4 l8,0" stroke="black" fill="none" /><text x="128" y="304" text-anchor="end" dominant-baseline="middle" font-size="6" font-family="monospace" fill="black" >|0⟩</text><path d="M144,48 L144,304" stroke="black" fill="none" /><circle cx="144" cy="176" r="4" stroke="black" fill="black" /><circle cx="144" cy="48" r="4" stroke="black" fill="black" /><circle cx="144" cy="304" r="4" stroke="black" fill="white" /><path d="M144,300 l0,8 m-4,-4 l8,0" stroke="black" fill="none" /><path d="M160,272 L160,304" stroke="black" fill="none" /><circle cx="160" cy="304" r="4" stroke="black" fill="black" /><circle cx="160" cy="272" r="4" stroke="black" fill="white" /><path d="M160,268 l0,8 m-4,-4 l8,0" stroke="black" fill="none" /><path d="M176,64 L176,272" stroke="black" fill="none" /><circle cx="176" cy="272" r="4" stroke="black" fill="black" /><circle cx="176" cy="192" r="4" stroke="black" fill="white" /><path d="M176,188 l0,8 m-4,-4 l8,0" stroke="black" fill="none" /><circle cx="176" cy="64" r="4" stroke="black" fill="white" /><path d="M176,60 l0,8 m-4,-4 l8,0" stroke="black" fill="none" /><text x="176" y="320" text-anchor="end" dominant-baseline="middle" font-size="6" font-family="monospace" fill="black" >|0⟩</text><path d="M192,64 L192,320" stroke="black" fill="none" /><circle cx="192" cy="192" r="4" stroke="black" fill="black" /><circle cx="192" cy="64" r="4" stroke="black" fill="black" /><circle cx="192" cy="320" r="4" stroke="black" fill="white" /><path d="M192,316 l0,8 m-4,-4 l8,0" stroke="black" fill="none" /><path d="M208,272 L208,320" stroke="black" fill="none" /><circle cx="208" cy="320" r="4" stroke="black" fill="black" /><circle cx="208" cy="272" r="4" stroke="black" fill="white" /><path d="M208,268 l0,8 m-4,-4 l8,0" stroke="black" fill="none" /><path d="M224,80 L224,272" stroke="black" fill="none" /><circle cx="224" cy="272" r="4" stroke="black" fill="black" /><circle cx="224" cy="208" r="4" stroke="black" fill="white" /><path d="M224,204 l0,8 m-4,-4 l8,0" stroke="black" fill="none" /><circle cx="224" cy="80" r="4" stroke="black" fill="white" /><path d="M224,76 l0,8 m-4,-4 l8,0" stroke="black" fill="none" /><text x="224" y="336" text-anchor="end" dominant-baseline="middle" font-size="6" font-family="monospace" fill="black" >|0⟩</text><path d="M240,80 L240,336" stroke="black" fill="none" /><circle cx="240" cy="208" r="4" stroke="black" fill="black" /><circle cx="240" cy="80" r="4" stroke="black" fill="black" /><circle cx="240" cy="336" r="4" stroke="black" fill="white" /><path d="M240,332 l0,8 m-4,-4 l8,0" stroke="black" fill="none" /><path d="M256,272 L256,336" stroke="black" fill="none" /><circle cx="256" cy="336" r="4" stroke="black" fill="black" /><circle cx="256" cy="272" r="4" stroke="black" fill="white" /><path d="M256,268 l0,8 m-4,-4 l8,0" stroke="black" fill="none" /><path d="M272,96 L272,272" stroke="black" fill="none" /><circle cx="272" cy="272" r="4" stroke="black" fill="black" /><circle cx="272" cy="224" r="4" stroke="black" fill="white" /><path d="M272,220 l0,8 m-4,-4 l8,0" stroke="black" fill="none" /><circle cx="272" cy="96" r="4" stroke="black" fill="white" /><path d="M272,92 l0,8 m-4,-4 l8,0" stroke="black" fill="none" /><text x="272" y="352" text-anchor="end" dominant-baseline="middle" font-size="6" font-family="monospace" fill="black" >|0⟩</text><path d="M288,96 L288,352" stroke="black" fill="none" /><circle cx="288" cy="224" r="4" stroke="black" fill="black" /><circle cx="288" cy="96" r="4" stroke="black" fill="black" /><circle cx="288" cy="352" r="4" stroke="black" fill="white" /><path d="M288,348 l0,8 m-4,-4 l8,0" stroke="black" fill="none" /><path d="M304,272 L304,352" stroke="black" fill="none" /><circle cx="304" cy="352" r="4" stroke="black" fill="black" /><circle cx="304" cy="272" r="4" stroke="black" fill="white" /><path d="M304,268 l0,8 m-4,-4 l8,0" stroke="black" fill="none" /><path d="M320,112 L320,272" stroke="black" fill="none" /><circle cx="320" cy="272" r="4" stroke="black" fill="black" /><circle cx="320" cy="240" r="4" stroke="black" fill="white" /><path d="M320,236 l0,8 m-4,-4 l8,0" stroke="black" fill="none" /><circle cx="320" cy="112" r="4" stroke="black" fill="white" /><path d="M320,108 l0,8 m-4,-4 l8,0" stroke="black" fill="none" /><circle cx="320" cy="128" r="4" stroke="black" fill="white" /><path d="M320,124 l0,8 m-4,-4 l8,0" stroke="black" fill="none" /><path d="M336,112 L336,240" stroke="black" fill="none" /><circle cx="336" cy="240" r="4" stroke="black" fill="black" /><circle cx="336" cy="112" r="4" stroke="black" fill="black" /><circle cx="336" cy="128" r="4" stroke="black" fill="white" /><path d="M336,124 l0,8 m-4,-4 l8,0" stroke="black" fill="none" /><path d="M352,240 L352,272" stroke="black" fill="none" /><circle cx="352" cy="272" r="4" stroke="black" fill="black" /><circle cx="352" cy="240" r="4" stroke="black" fill="white" /><path d="M352,236 l0,8 m-4,-4 l8,0" stroke="black" fill="none" /><path d="M368,112 L368,240" stroke="black" fill="none" /><circle cx="368" cy="240" r="4" stroke="black" fill="black" /><circle cx="368" cy="112" r="4" stroke="black" fill="white" /><path d="M368,108 l0,8 m-4,-4 l8,0" stroke="black" fill="none" /><path d="M368,272 L368,352" stroke="black" fill="none" /><circle cx="368" cy="352" r="4" stroke="black" fill="black" /><circle cx="368" cy="272" r="4" stroke="black" fill="white" /><path d="M368,268 l0,8 m-4,-4 l8,0" stroke="black" fill="none" /><rect x="380" y="348" width="8" height="8" stroke="black" fill="black" /><text x="384" y="352" text-anchor="middle" dominant-baseline="middle" font-size="6" font-family="monospace" fill="white" >MX</text><path d="M388,351 l3,0 m0,2 l-3,0" stroke="black" fill="none" /><text x="391" y="352" text-anchor="left" dominant-baseline="middle" font-size="6" font-family="monospace" fill="black" >b0</text><path d="M416,96 L416,224" stroke="black" fill="none" /><path d="M415,95 l0,-5.5 m2,0 l0,5.5" stroke="black" fill="none" /><text x="416" y="87.5" text-anchor="middle" dominant-baseline="middle" font-size="5" font-family="monospace" fill="black" >b0</text><circle cx="416" cy="96" r="4" stroke="black" fill="black" /><circle cx="416" cy="224" r="4" stroke="black" fill="black" /><path d="M432,224 L432,272" stroke="black" fill="none" /><circle cx="432" cy="272" r="4" stroke="black" fill="black" /><circle cx="432" cy="224" r="4" stroke="black" fill="white" /><path d="M432,220 l0,8 m-4,-4 l8,0" stroke="black" fill="none" /><path d="M448,96 L448,224" stroke="black" fill="none" /><circle cx="448" cy="224" r="4" stroke="black" fill="black" /><circle cx="448" cy="96" r="4" stroke="black" fill="white" /><path d="M448,92 l0,8 m-4,-4 l8,0" stroke="black" fill="none" /><path d="M448,272 L448,336" stroke="black" fill="none" /><circle cx="448" cy="336" r="4" stroke="black" fill="black" /><circle cx="448" cy="272" r="4" stroke="black" fill="white" /><path d="M448,268 l0,8 m-4,-4 l8,0" stroke="black" fill="none" /><rect x="460" y="332" width="8" height="8" stroke="black" fill="black" /><text x="464" y="336" text-anchor="middle" dominant-baseline="middle" font-size="6" font-family="monospace" fill="white" >MX</text><path d="M468,335 l3,0 m0,2 l-3,0" stroke="black" fill="none" /><text x="471" y="336" text-anchor="left" dominant-baseline="middle" font-size="6" font-family="monospace" fill="black" >b0</text><path d="M496,80 L496,208" stroke="black" fill="none" /><path d="M495,79 l0,-5.5 m2,0 l0,5.5" stroke="black" fill="none" /><text x="496" y="71.5" text-anchor="middle" dominant-baseline="middle" font-size="5" font-family="monospace" fill="black" >b0</text><circle cx="496" cy="80" r="4" stroke="black" fill="black" /><circle cx="496" cy="208" r="4" stroke="black" fill="black" /><path d="M512,208 L512,272" stroke="black" fill="none" /><circle cx="512" cy="272" r="4" stroke="black" fill="black" /><circle cx="512" cy="208" r="4" stroke="black" fill="white" /><path d="M512,204 l0,8 m-4,-4 l8,0" stroke="black" fill="none" /><path d="M528,80 L528,208" stroke="black" fill="none" /><circle cx="528" cy="208" r="4" stroke="black" fill="black" /><circle cx="528" cy="80" r="4" stroke="black" fill="white" /><path d="M528,76 l0,8 m-4,-4 l8,0" stroke="black" fill="none" /><path d="M528,272 L528,320" stroke="black" fill="none" /><circle cx="528" cy="320" r="4" stroke="black" fill="black" /><circle cx="528" cy="272" r="4" stroke="black" fill="white" /><path d="M528,268 l0,8 m-4,-4 l8,0" stroke="black" fill="none" /><rect x="540" y="316" width="8" height="8" stroke="black" fill="black" /><text x="544" y="320" text-anchor="middle" dominant-baseline="middle" font-size="6" font-family="monospace" fill="white" >MX</text><path d="M548,319 l3,0 m0,2 l-3,0" stroke="black" fill="none" /><text x="551" y="320" text-anchor="left" dominant-baseline="middle" font-size="6" font-family="monospace" fill="black" >b0</text><path d="M576,64 L576,192" stroke="black" fill="none" /><path d="M575,63 l0,-5.5 m2,0 l0,5.5" stroke="black" fill="none" /><text x="576" y="55.5" text-anchor="middle" dominant-baseline="middle" font-size="5" font-family="monospace" fill="black" >b0</text><circle cx="576" cy="64" r="4" stroke="black" fill="black" /><circle cx="576" cy="192" r="4" stroke="black" fill="black" /><path d="M592,192 L592,272" stroke="black" fill="none" /><circle cx="592" cy="272" r="4" stroke="black" fill="black" /><circle cx="592" cy="192" r="4" stroke="black" fill="white" /><path d="M592,188 l0,8 m-4,-4 l8,0" stroke="black" fill="none" /><path d="M608,64 L608,192" stroke="black" fill="none" /><circle cx="608" cy="192" r="4" stroke="black" fill="black" /><circle cx="608" cy="64" r="4" stroke="black" fill="white" /><path d="M608,60 l0,8 m-4,-4 l8,0" stroke="black" fill="none" /><path d="M608,272 L608,304" stroke="black" fill="none" /><circle cx="608" cy="304" r="4" stroke="black" fill="black" /><circle cx="608" cy="272" r="4" stroke="black" fill="white" /><path d="M608,268 l0,8 m-4,-4 l8,0" stroke="black" fill="none" /><rect x="620" y="300" width="8" height="8" stroke="black" fill="black" /><text x="624" y="304" text-anchor="middle" dominant-baseline="middle" font-size="6" font-family="monospace" fill="white" >MX</text><path d="M628,303 l3,0 m0,2 l-3,0" stroke="black" fill="none" /><text x="631" y="304" text-anchor="left" dominant-baseline="middle" font-size="6" font-family="monospace" fill="black" >b0</text><path d="M656,48 L656,176" stroke="black" fill="none" /><path d="M655,47 l0,-5.5 m2,0 l0,5.5" stroke="black" fill="none" /><text x="656" y="39.5" text-anchor="middle" dominant-baseline="middle" font-size="5" font-family="monospace" fill="black" >b0</text><circle cx="656" cy="48" r="4" stroke="black" fill="black" /><circle cx="656" cy="176" r="4" stroke="black" fill="black" /><path d="M672,176 L672,272" stroke="black" fill="none" /><circle cx="672" cy="272" r="4" stroke="black" fill="black" /><circle cx="672" cy="176" r="4" stroke="black" fill="white" /><path d="M672,172 l0,8 m-4,-4 l8,0" stroke="black" fill="none" /><path d="M688,48 L688,176" stroke="black" fill="none" /><circle cx="688" cy="176" r="4" stroke="black" fill="black" /><circle cx="688" cy="48" r="4" stroke="black" fill="white" /><path d="M688,44 l0,8 m-4,-4 l8,0" stroke="black" fill="none" /><path d="M688,272 L688,288" stroke="black" fill="none" /><circle cx="688" cy="288" r="4" stroke="black" fill="black" /><circle cx="688" cy="272" r="4" stroke="black" fill="white" /><path d="M688,268 l0,8 m-4,-4 l8,0" stroke="black" fill="none" /><rect x="700" y="284" width="8" height="8" stroke="black" fill="black" /><text x="704" y="288" text-anchor="middle" dominant-baseline="middle" font-size="6" font-family="monospace" fill="white" >MX</text><path d="M708,287 l3,0 m0,2 l-3,0" stroke="black" fill="none" /><text x="711" y="288" text-anchor="left" dominant-baseline="middle" font-size="6" font-family="monospace" fill="black" >b0</text><path d="M736,32 L736,160" stroke="black" fill="none" /><path d="M735,31 l0,-5.5 m2,0 l0,5.5" stroke="black" fill="none" /><text x="736" y="23.5" text-anchor="middle" dominant-baseline="middle" font-size="5" font-family="monospace" fill="black" >b0</text><circle cx="736" cy="32" r="4" stroke="black" fill="black" /><circle cx="736" cy="160" r="4" stroke="black" fill="black" /><path d="M752,160 L752,272" stroke="black" fill="none" /><circle cx="752" cy="272" r="4" stroke="black" fill="black" /><circle cx="752" cy="160" r="4" stroke="black" fill="white" /><path d="M752,156 l0,8 m-4,-4 l8,0" stroke="black" fill="none" /><path d="M768,32 L768,160" stroke="black" fill="none" /><circle cx="768" cy="160" r="4" stroke="black" fill="black" /><circle cx="768" cy="32" r="4" stroke="black" fill="white" /><path d="M768,28 l0,8 m-4,-4 l8,0" stroke="black" fill="none" /><rect x="764" y="268" width="8" height="8" stroke="black" fill="black" /><text x="768" y="272" text-anchor="middle" dominant-baseline="middle" font-size="6" font-family="monospace" fill="white" >MX</text><path d="M772,271 l3,0 m0,2 l-3,0" stroke="black" fill="none" /><text x="775" y="272" text-anchor="left" dominant-baseline="middle" font-size="6" font-family="monospace" fill="black" >b0</text><path d="M800,16 L800,144" stroke="black" fill="none" /><path d="M799,15 l0,-5.5 m2,0 l0,5.5" stroke="black" fill="none" /><text x="800" y="7.5" text-anchor="middle" dominant-baseline="middle" font-size="5" font-family="monospace" fill="black" >b0</text><circle cx="800" cy="16" r="4" stroke="black" fill="black" /><circle cx="800" cy="144" r="4" stroke="black" fill="black" /><path d="M816,16 L816,144" stroke="black" fill="none" /><circle cx="816" cy="144" r="4" stroke="black" fill="black" /><circle cx="816" cy="16" r="4" stroke="black" fill="white" /><path d="M816,12 l0,8 m-4,-4 l8,0" stroke="black" fill="none" /></svg>
